:SAMPLES-PER-SECOND 30
:FULLY-SPECIFIED
:DEGREES
116
root  -36.3508 39.593 -33.6557 5.60074 -45.3111 -4.78517
RightUpLeg  -20.1271 -18.22 -0.568655
RightLeg  25.6186 4.27793 1.97405
RightFoot  -4.22091 -0.115891 1.39978
RightToes  0.000482159 0.542163 -0.142577
Spine  45.2819 -6.36908 15.3443
Spine1  5.7916 1.24242 -6.9162
HEad  -39.147 45.8769 -48.507
LeftShoulder1  10.4522 -16.3207 -45.9759
LeftArm  -15.6029 2.35746 -24.8735
LeftForeArm  27.2783 -73.998 -41.5745
LeftHand  -0.25398 0.0180481 5.50724
RightShoulder  5.33859 10.8144 31.3363
RightArm  -14.8839 -4.9798 22.0622
RightForeArm  -3.45676 74.7431 52.5766
RightHand  0.510517 -15.0969 -7.1201
LeftUpLeg  -26.136 6.59941 1.73471
LeftLeg  4.63553 -8.53306 -6.37073
LeftFoot  18.2013 4.54138 -17.6437
LeftToes  1.06245e-005 4.65856e-005 -8.18503e-006
117
root  -36.1817 39.8355 -34.0776 3.91856 -38.9226 -4.62383
RightUpLeg  -16.7833 -23.6335 -1.08494
RightLeg  22.8841 3.31018 1.485
RightFoot  -3.24974 -0.152775 1.85116
RightToes  0.000482159 0.542163 -0.142577
Spine  43.0484 -6.28026 16.8093
Spine1  5.34655 1.36338 -6.44309
HEad  -36.4063 45.6787 -47.4095
LeftShoulder1  10.3924 -15.9575 -46.5865
LeftArm  -14.4438 3.67532 -25.168
LeftForeArm  29.4931 -74.4539 -42.9719
LeftHand  -0.25398 0.0180481 5.50724
RightShoulder  5.29399 10.42 32.0769
RightArm  -16.0493 -8.84223 22.1644
RightForeArm  2.8783 75.8828 59.509
RightHand  0.602197 -15.846 -7.64932
LeftUpLeg  -25.4284 11.4107 -0.429472
LeftLeg  7.94731 -13.6825 -6.69623
LeftFoot  12.59 4.72713 -22.2459
LeftToes  1.06245e-005 4.65856e-005 -8.18503e-006
118
root  -35.9745 40.1128 -34.4129 2.291 -32.6703 -3.87119
RightUpLeg  -13.2061 -25.5624 -3.29847
RightLeg  19.6423 -0.712553 1.24468
RightFoot  -1.80557 -0.189288 2.11647
RightToes  0.000482159 0.542163 -0.142577
Spine  41.1202 -5.90047 17.0596
Spine1  4.42149 1.3836 -5.98441
HEad  -34.3539 45.5968 -45.9326
LeftShoulder1  10.3286 -15.6376 -47.0881
LeftArm  -13.2521 5.44805 -24.9168
LeftForeArm  33.2651 -75.3074 -46.1432
LeftHand  -0.25398 0.0180481 5.50724
RightShoulder  5.24885 10.1227 32.5762
RightArm  -16.4804 -12.8326 21.9846
RightForeArm  10.8539 76.8567 68.2627
RightHand  0.664883 -16.106 -8.13483
LeftUpLeg  -25.5162 17.1443 -3.58583
LeftLeg  13.1522 -15.6385 -5.49374
LeftFoot  7.45599 2.89697 -17.5746
LeftToes  1.06245e-005 4.65856e-005 -8.18503e-006
119
root  -35.7218 40.3366 -34.6166 1.07893 -26.8736 -2.97935
RightUpLeg  -9.74641 -23.4887 -6.55662
RightLeg  16.8248 -7.88662 1.65415
RightFoot  -0.413628 -0.271936 2.80917
RightToes  0.000482159 0.542163 -0.142577
Spine  38.9138 -5.31827 16.7236
Spine1  3.81355 1.42126 -5.73312
HEad  -32.5027 45.1699 -44.3819
LeftShoulder1  10.274 -15.3333 -47.6061
LeftArm  -12.0661 7.06321 -24.1262
LeftForeArm  38.3472 -76.3561 -51.0689
LeftHand  -0.25398 0.0180481 5.50724
RightShoulder  5.13017 9.81685 32.5705
RightArm  -16.3505 -16.5307 22.0676
RightForeArm  20.2994 77.5104 78.6146
RightHand  0.711369 -15.8869 -8.77903
LeftUpLeg  -24.9736 18.8175 -4.10696
LeftLeg  16.6571 -10.3647 -3.11148
LeftFoot  4.38513 1.37665 -10.222
LeftToes  1.06245e-005 4.65856e-005 -8.18503e-006
120
root  -35.4084 40.4739 -34.6917 0.27037 -21.6013 -2.46001
RightUpLeg  -6.73591 -20.6325 -9.23037
RightLeg  14.6163 -15.368 2.14243
RightFoot  0.601115 -0.381741 3.69015
RightToes  0.000482159 0.542163 -0.142577
Spine  36.5039 -4.67601 16.3006
Spine1  3.66014 1.53131 -5.64043
HEad  -31.1124 44.7081 -42.7714
LeftShoulder1  10.1977 -15.1171 -47.804
LeftArm  -11.3083 8.64828 -23.5169
LeftForeArm  44.617 -77.3652 -57.3357
LeftHand  -0.25398 0.0180481 5.50724
RightShoulder  5.01818 9.56343 32.4616
RightArm  -16.0716 -19.6555 22.336
RightForeArm  29.8722 77.7339 88.8916
RightHand  0.757065 -15.7313 -9.38664
LeftUpLeg  -23.8574 18.069 -2.03246
LeftLeg  19.1734 -3.98881 -1.22104
LeftFoot  2.51283 0.677149 -5.73058
LeftToes  1.06245e-005 4.65856e-005 -8.18503e-006
121
root  -35.009 40.5229 -34.6565 -0.209183 -16.8234 -2.36324
RightUpLeg  -4.32411 -17.8733 -11.0401
RightLeg  12.9753 -22.3134 2.36537
RightFoot  1.44493 -0.46933 4.27642
RightToes  0.000482159 0.542163 -0.142577
Spine  34.1726 -4.1389 15.9151
Spine1  3.49924 1.62021 -5.74179
HEad  -29.8181 44.128 -40.6766
LeftShoulder1  10.0769 -14.9497 -47.6646
LeftArm  -11.3534 10.5075 -23.2259
LeftForeArm  52.0359 -78.2157 -64.6402
LeftHand  -0.25398 0.0180481 5.50724
RightShoulder  5.01487 9.49533 32.6368
RightArm  -15.7962 -22.1653 22.6226
RightForeArm  38.3813 77.6219 97.6465
RightHand  0.797338 -15.775 -9.77973
LeftUpLeg  -22.9728 17.5007 0.72058
LeftLeg  21.6843 -0.924764 -0.083787
LeftFoot  0.706247 0.333225 -3.19854
LeftToes  1.06245e-005 4.65856e-005 -8.18503e-006
